<?xml version="1.0" encoding="UTF-8"?>
<svg width="400" height="150" viewBox="0 0 400 150" xmlns="http://www.w3.org/2000/svg">
  <style>
    .label { font-family: sans-serif; font-size: 12px; fill: #666; }
    .dimension { stroke: #368727; stroke-width: 1; stroke-dasharray: 4 2; }
    .arrow { stroke: #368727; stroke-width: 1; fill: none; marker-end: url(#arrowhead); }
    .component { fill: #fff; stroke: #ddd; stroke-width: 1; }
    .header { fill: #f9f9f9; }
    .header-text { font-family: sans-serif; font-size: 14px; fill: #333; font-weight: 500; }
    .icon { fill: none; stroke: #666; stroke-width: 2; }
  </style>
  
  <defs>
    <marker id="arrowhead" markerWidth="10" markerHeight="7" refX="9" refY="3.5" orient="auto">
      <polygon points="0 0, 10 3.5, 0 7" fill="#368727" />
    </marker>
  </defs>
  
  <!-- Accordion component -->
  <rect class="component" x="50" y="40" width="300" height="48" rx="4" />
  <rect class="header" x="50" y="40" width="300" height="48" rx="4" />
  
  <!-- Header text -->
  <text class="header-text" x="70" y="68">Accordion heading</text>
  
  <!-- Chevron icon -->
  <path class="icon" d="M320 54 L330 64 L320 74" />
  
  <!-- Dimensions -->
  <!-- Height -->
  <line class="dimension" x1="30" y1="40" x2="30" y2="88" />
  <path class="arrow" d="M30 45 L30 83" />
  <text class="label" x="15" y="64">48px</text>
  
  <!-- Width -->
  <line class="dimension" x1="50" y1="110" x2="350" y2="110" />
  <path class="arrow" d="M55 110 L345 110" />
  <text class="label" x="190" y="125">300px</text>
  
  <!-- Padding left -->
  <line class="dimension" x1="50" y1="20" x2="70" y2="20" />
  <path class="arrow" d="M55 20 L65 20" />
  <text class="label" x="53" y="15">16px</text>
  
  <!-- Icon margin -->
  <line class="dimension" x1="300" y1="30" x2="330" y2="30" />
  <path class="arrow" d="M305 30 L325 30" />
  <text class="label" x="308" y="25">16px</text>
</svg>